HIERARCHY
ROOT Hips
{
	OFFSET 55.310501 45.591206 43.872097
	CHANNELS 6 Xposition Yposition Zposition Zrotation Xrotation Yrotation
	JOINT Chest
	{
		OFFSET -0.153500 1.163101 7.852402
		CHANNELS 6 Xposition Yposition Zposition Zrotation Xrotation Yrotation
		JOINT Chest2
		{
			OFFSET 0.000000 0.000000 3.343300
			CHANNELS 6 Xposition Yposition Zposition Zrotation Xrotation Yrotation
			JOINT Neck
			{
				OFFSET 0.000000 0.000000 7.785500
				CHANNELS 6 Xposition Yposition Zposition Zrotation Xrotation Yrotation
				JOINT Head
				{
					OFFSET 0.000000 0.000000 2.173901
					CHANNELS 6 Xposition Yposition Zposition Zrotation Xrotation Yrotation
					End Site
					{
						OFFSET 0.000000 0.000000 10.528198
					}
				}
			}
			JOINT LeftCollar
			{
				OFFSET 2.676300 -1.652401 4.938301
				CHANNELS 6 Xposition Yposition Zposition Zrotation Xrotation Yrotation
				JOINT LeftShoulder
				{
					OFFSET 4.299000 0.000000 0.000000
					CHANNELS 6 Xposition Yposition Zposition Zrotation Xrotation Yrotation
					JOINT LeftElbow
					{
						OFFSET 0.000000 0.000000 -10.245102
						CHANNELS 6 Xposition Yposition Zposition Zrotation Xrotation Yrotation
						JOINT LeftWrist
						{
							OFFSET 0.000000 0.000000 -12.703300
							CHANNELS 6 Xposition Yposition Zposition Zrotation Xrotation Yrotation
							End Site
							{
								OFFSET 0.000000 0.000000 -2.173901
							}
						}
					}
				}
			}
			JOINT RightCollar
			{
				OFFSET -2.534599 -1.686401 5.195000
				CHANNELS 6 Xposition Yposition Zposition Zrotation Xrotation Yrotation
				JOINT RightShoulder
				{
					OFFSET -4.144100 0.000000 0.000000
					CHANNELS 6 Xposition Yposition Zposition Zrotation Xrotation Yrotation
					JOINT RightElbow
					{
						OFFSET 0.000000 0.000000 -10.116501
						CHANNELS 6 Xposition Yposition Zposition Zrotation Xrotation Yrotation
						JOINT RightWrist
						{
							OFFSET 0.000000 0.000000 -12.937801
							CHANNELS 6 Xposition Yposition Zposition Zrotation Xrotation Yrotation
							End Site
							{
								OFFSET 0.000000 0.000000 -2.173901
							}
						}
					}
				}
			}
		}
	}
	JOINT LeftHip
	{
		OFFSET 2.175598 0.064499 -2.662899
		CHANNELS 6 Xposition Yposition Zposition Zrotation Xrotation Yrotation
		JOINT LeftKnee
		{
			OFFSET 0.000000 -0.000004 -18.585800
			CHANNELS 6 Xposition Yposition Zposition Zrotation Xrotation Yrotation
			JOINT LeftAnkle
			{
				OFFSET 0.000000 0.000000 -18.979500
				CHANNELS 6 Xposition Yposition Zposition Zrotation Xrotation Yrotation
				End Site
				{
					OFFSET 0.000000 -9.264000 0.000000
				}
			}
		}
	}
	JOINT RightHip
	{
		OFFSET -2.092400 -0.058102 -2.581200
		CHANNELS 6 Xposition Yposition Zposition Zrotation Xrotation Yrotation
		JOINT RightKnee
		{
			OFFSET 0.000000 -0.000004 -18.665001
			CHANNELS 6 Xposition Yposition Zposition Zrotation Xrotation Yrotation
			JOINT RightAnkle
			{
				OFFSET 0.000000 0.000000 -18.566601
				CHANNELS 6 Xposition Yposition Zposition Zrotation Xrotation Yrotation
				End Site
				{
					OFFSET 0.000000 -8.497601 0.000000
				}
			}
		}
	}
}
MOTION
Frames: 9
Frame Time: 0.041667
67.151398 15.072102 19.093388 2511.353023 17.833641 -6.804382 -0.153502 1.163101 7.852396 12.462232 14.572352 -15.240251 0.000001 0.000001 3.343306 -6.233101 -9.572660 -0.342695 0.000000 -0.000002 7.785512 -39.443632 13.397781 3.739949 -0.000003 -0.000002 2.173901 -7.863103 -0.155045 -11.791401 2.676296 -1.652400 4.938303 -1.154429 7.858454 -0.405626 4.298994 -0.000005 -0.000010 -378.568562 -13.707969 309.628895 0.000002 0.000000 -10.245100 166.518332 676.045622 496.626989 -0.000003 0.000008 -12.703302 1098.390697 -383.643092 383.346826 -2.534596 -1.686399 5.195004 1.189534 7.429573 1.610449 -4.144104 -0.000001 -0.000004 163.460620 208.960581 -140.049095 0.000000 0.000001 -10.116501 -500.025363 -392.386062 -476.661253 0.000002 0.000004 -12.937798 -1817.313350 -42.935256 -53.051005 2.175594 0.064509 -2.662893 -968.602459 -30.309757 121.591547 -0.000003 -0.000007 -18.585804 382.801640 -195.329422 -49.203149 0.000007 0.000001 -18.979511 782.905898 -25.747225 -912.325033 -2.092403 -0.058100 -2.581193 1318.624519 -30.805034 -77.494076 0.000006 -0.000003 -18.665005 -1074.089649 180.052037 -693.462331 -0.000005 0.000000 -18.566595 673.027115 -3.272066 -401.993953
67.129211 15.052803 19.118088 2511.548421 17.433120 -6.567772 -0.153500 1.163105 7.852405 12.129254 14.058513 -14.965839 0.000010 0.000006 3.343303 -5.948453 -9.754378 -0.356150 -0.000012 -0.000001 7.785500 -39.711823 14.238037 4.225598 -0.000003 0.000003 2.173899 -7.906691 -0.004096 -11.854592 2.676290 -1.652392 4.938298 -0.536338 7.981362 -2.015196 4.299001 0.000001 -0.000003 -380.258133 -17.239430 306.985803 -0.000001 -0.000002 -10.245102 169.804746 678.149866 497.101714 -0.000010 0.000004 -12.703300 1089.982898 -382.377048 377.034147 -2.534605 -1.686394 5.194996 2.312834 8.380266 1.967261 -4.144108 -0.000004 0.000006 162.878742 214.152645 -137.272705 0.000000 0.000006 -10.116503 -501.927379 -392.565751 -475.305652 0.000001 -0.000006 -12.937799 -1814.830877 -43.201968 -49.699428 2.175606 0.064507 -2.662886 -969.067895 -30.223485 121.124075 -0.000008 0.000001 -18.585808 382.512122 -194.952054 -49.290873 0.000005 0.000003 -18.979511 783.008133 -25.820750 -912.390111 -2.092403 -0.058098 -2.581189 1318.706590 -30.612744 -76.880507 0.000006 -0.000003 -18.665003 -1074.323952 180.461125 -693.165955 -0.000006 -0.000003 -18.566603 672.836471 -3.324045 -402.567470
67.107811 15.033600 19.146793 2511.797805 17.052544 -6.340707 -0.153505 1.163105 7.852400 11.753890 13.582024 -14.707661 -0.000001 0.000007 3.343307 -5.751335 -9.953239 -0.375332 -0.000001 -0.000005 7.785502 -39.954202 15.037351 4.731068 0.000002 -0.000002 2.173913 -7.876494 0.187339 -11.893896 2.676299 -1.652399 4.938304 -0.082793 8.081214 -3.008760 4.298995 0.000009 -0.000010 -381.843747 -20.097856 303.926315 -0.000003 -0.000008 -10.245115 173.767389 679.894297 498.330875 -0.000004 0.000000 -12.703302 1082.366308 -380.523936 371.210755 -2.534601 -1.686406 5.195006 2.017102 8.775739 2.161964 -4.144100 -0.000004 0.000002 164.592478 218.991383 -133.355550 0.000000 -0.000005 -10.116503 -503.790273 -393.064546 -474.320902 0.000006 0.000008 -12.937807 -1812.227100 -42.594839 -45.704351 2.175590 0.064502 -2.662897 -969.484701 -30.420532 120.646194 0.000001 -0.000012 -18.585804 382.402730 -194.784755 -49.412563 0.000003 0.000009 -18.979513 782.979337 -25.963545 -912.425737 -2.092398 -0.058102 -2.581192 1318.705934 -30.368397 -76.260175 0.000002 0.000004 -18.664999 -1074.431158 180.753348 -692.892802 -0.000002 0.000006 -18.566608 672.736641 -3.325840 -402.934279
67.086197 15.014309 19.182594 2512.029048 16.766644 -6.067883 -0.153510 1.163105 7.852400 11.414358 13.017266 -14.484193 0.000003 0.000005 3.343303 -5.711823 -10.163335 -0.409751 0.000000 -0.000004 7.785500 -40.143300 15.828938 5.292662 -0.000002 0.000010 2.173909 -7.763205 0.386155 -11.901372 2.676292 -1.652403 4.938304 0.372273 8.213173 -4.232924 4.298988 0.000001 -0.000002 -383.570119 -22.506974 301.046871 -0.000004 -0.000008 -10.245098 178.599379 681.078488 500.156831 -0.000009 0.000005 -12.703304 1075.231001 -378.012394 365.753761 -2.534602 -1.686406 5.194998 1.927974 9.276924 2.226397 -4.144102 0.000001 -0.000002 166.876152 223.898929 -128.488972 0.000006 0.000002 -10.116503 -504.920150 -393.457473 -473.227252 0.000005 0.000004 -12.937799 -1807.842446 -42.131527 -40.544321 2.175590 0.064502 -2.662897 -969.772115 -30.786712 120.256354 -0.000004 -0.000009 -18.585804 382.405735 -194.737518 -49.553302 0.000008 0.000002 -18.979509 782.877758 -26.147803 -912.453113 -2.092410 -0.058102 -2.581191 1318.519716 -29.725629 -75.783947 0.000003 0.000004 -18.664997 -1074.234777 181.030954 -692.642162 -0.000001 -0.000003 -18.566599 672.592770 -3.300051 -403.191886
67.062202 14.993399 19.229496 2512.233626 16.567889 -5.806144 -0.153509 1.163101 7.852398 11.134550 12.352422 -14.380369 0.000006 0.000003 3.343300 -5.677933 -10.335295 -0.429208 -0.000006 0.000000 7.785501 -40.268555 16.546745 5.909385 -0.000002 -0.000005 2.173900 -7.719566 0.573594 -11.904665 2.676290 -1.652394 4.938295 0.666710 8.463508 -5.219494 4.299006 0.000011 -0.000004 -385.342607 -23.835910 298.048145 0.000002 -0.000006 -10.245111 184.783255 681.767790 502.373309 -0.000011 0.000002 -12.703302 1068.869308 -375.352609 361.302090 -2.534598 -1.686398 5.194996 1.843035 9.632317 2.452977 -4.144108 -0.000002 -0.000008 169.796850 228.255059 -123.077605 0.000015 -0.000003 -10.116503 -505.927029 -393.502989 -472.728211 0.000010 0.000010 -12.937803 -1801.356717 -40.903288 -33.291291 2.175582 0.064500 -2.662893 -969.946094 -31.260973 119.909654 -0.000008 -0.000018 -18.585812 382.515701 -194.805533 -49.725218 0.000008 0.000005 -18.979507 782.715309 -26.351517 -912.472565 -2.092405 -0.058098 -2.581191 1318.147826 -28.764413 -75.432882 0.000000 -0.000002 -18.665003 -1073.773712 181.284190 -692.394308 -0.000000 0.000002 -18.566603 672.400268 -3.251908 -403.306497
67.035698 14.970606 19.285898 2512.392961 16.417654 -5.485131 -0.153508 1.163106 7.852397 10.921164 11.638278 -14.374862 -0.000000 0.000005 3.343302 -5.693402 -10.528661 -0.450925 -0.000005 0.000004 7.785502 -40.388077 17.242357 6.643422 0.000000 0.000005 2.173918 -7.624808 0.764246 -11.917554 2.676292 -1.652396 4.938297 0.940623 8.707907 -5.597994 4.299004 0.000002 -0.000006 -387.620230 -23.370568 294.700751 0.000003 -0.000004 -10.245094 195.652517 680.222801 506.760640 0.000002 0.000003 -12.703300 1066.174607 -373.007176 358.429094 -2.534607 -1.686399 5.194997 2.872407 8.464042 2.633298 -4.144102 0.000001 -0.000006 172.372268 231.390854 -116.690708 0.000000 0.000004 -10.116499 -505.194669 -392.487422 -471.559921 0.000010 0.000006 -12.937799 -1792.293657 -39.222761 -26.098696 2.175588 0.064502 -2.662895 -970.023575 -31.863826 119.604795 -0.000003 -0.000001 -18.585804 382.697494 -194.937888 -49.918458 0.000008 0.000006 -18.979509 782.538817 -26.532790 -912.485515 -2.092408 -0.058102 -2.581198 1317.665669 -27.490427 -75.122874 0.000007 0.000002 -18.665005 -1073.049165 181.476979 -692.200276 -0.000007 0.000008 -18.566603 672.064824 -3.284299 -403.437308
67.008003 14.943100 19.349697 2512.443668 16.297822 -5.143970 -0.153510 1.163101 7.852403 10.820135 10.916827 -14.413028 -0.000004 0.000006 3.343300 -5.737230 -10.725571 -0.473359 0.000000 0.000004 7.785509 -40.516231 17.907035 7.471561 -0.000004 -0.000001 2.173903 -7.534070 0.967470 -11.922496 2.676294 -1.652396 4.938303 1.186600 8.989050 -5.676785 4.298998 -0.000005 -0.000010 -389.675789 -21.936630 291.312650 0.000003 -0.000008 -10.245123 198.629646 682.459443 506.419185 -0.000002 0.000006 -12.703306 1054.964354 -370.306875 355.404932 -2.534599 -1.686400 5.195003 2.773628 9.076832 3.541009 -4.144099 -0.000004 -0.000010 176.101797 235.708790 -110.639270 0.000002 0.000002 -10.116509 -504.058398 -390.577920 -470.401412 -0.000003 0.000005 -12.937801 -1780.995978 -36.719476 -18.901172 2.175589 0.064508 -2.662901 -969.990462 -32.574036 119.314170 -0.000001 -0.000007 -18.585808 382.946140 -195.159173 -50.129733 0.000005 0.000006 -18.979511 782.343419 -26.673764 -912.477538 -2.092404 -0.058102 -2.581195 1317.232034 -26.158441 -74.807162 0.000001 0.000003 -18.665003 -1072.282326 181.663511 -691.997283 -0.000008 0.000007 -18.566597 671.694245 -3.313078 -403.496376
66.980804 14.913002 19.419392 2512.422904 16.204264 -4.842103 -0.153494 1.163104 7.852400 10.782662 10.236253 -14.417768 0.000002 0.000004 3.343305 -5.767914 -10.953042 -0.496393 0.000004 0.000002 7.785507 -40.620733 18.540410 8.268274 -0.000002 -0.000004 2.173904 -7.495046 1.174140 -11.933397 2.676298 -1.652397 4.938301 1.683964 9.098994 -5.378553 4.299002 0.000001 -0.000002 -391.783394 -19.663662 287.902528 0.000000 -0.000010 -10.245111 210.491718 679.732449 511.444128 0.000003 0.000001 -12.703316 1052.708971 -367.806643 353.812268 -2.534592 -1.686400 5.195000 2.791368 9.652134 3.402359 -4.144103 -0.000001 -0.000010 182.937888 239.948370 -100.908231 0.000000 0.000002 -10.116505 -501.877382 -388.097277 -468.871723 0.000002 0.000005 -12.937805 -1767.831198 -33.195136 -11.894202 2.175594 0.064506 -2.662899 -969.922598 -33.238972 118.999804 -0.000005 -0.000012 -18.585808 383.196671 -195.386686 -50.368530 0.000002 -0.000004 -18.979513 782.175560 -26.778636 -912.452566 -2.092401 -0.058102 -2.581194 1316.878067 -24.940736 -74.518996 0.000004 -0.000005 -18.665005 -1071.589144 181.866286 -691.781449 -0.000004 0.000001 -18.566605 671.320661 -3.377401 -403.636777
66.952499 14.880503 19.491890 2512.405856 16.082174 -4.593191 -0.153515 1.163102 7.852403 10.744251 9.627374 -14.443914 0.000010 0.000007 3.343302 -5.722110 -11.176879 -0.506473 -0.000009 0.000002 7.785501 -40.768375 19.118364 9.091674 -0.000008 -0.000003 2.173910 -7.504360 1.365681 -11.980283 2.676297 -1.652396 4.938302 2.083620 8.987208 -4.666358 4.299000 -0.000004 -0.000007 -393.379773 -16.980356 284.691710 -0.000004 -0.000009 -10.245106 219.062513 678.257565 514.604265 -0.000019 0.000005 -12.703302 1047.619333 -365.219258 353.216922 -2.534601 -1.686397 5.195001 2.712186 10.205385 3.245407 -4.144098 0.000000 0.000001 192.630118 243.417779 -88.336947 0.000000 0.000005 -10.116504 -499.170005 -385.483965 -467.124615 0.000004 0.000001 -12.937811 -1757.811146 -28.805660 -8.438839 2.175586 0.064502 -2.662897 -969.912544 -33.854543 118.636315 -0.000001 -0.000004 -18.585802 383.440482 -195.591770 -50.618105 0.000002 0.000007 -18.979509 782.033820 -26.835506 -912.425683 -2.092407 -0.058105 -2.581195 1316.540054 -23.842771 -74.201618 0.000003 0.000005 -18.665009 -1070.981530 182.104591 -691.548239 -0.000007 0.000003 -18.566601 670.930684 -3.476115 -403.858868
